# xmcd CD database file
#
# Track frame offsets:
#	150
#	19274
#	38236
#	63813
#	80585
#	111874
#	128242
#	149423
#	167439
#	188371
#	213300
#	234451
#
# Disc length: 3407 seconds
#
# Revision: 0
# Processed by: cddbd v1.4PL0 Copyright (c) Steve Scherf et al.
# Submitted via: CDex 1.50
#
DISCID=9b0d4d0c
DTITLE=Judy Niemack - Heart's desire
DYEAR=1992
DGENRE=Jazz
TTITLE0=Come rain or come shine
TTITLE1=the sweetest sounds
TTITLE2=With every breath I take
TTITLE3=Get out of town
TTITLE4=I'm just a Lucky So and so
TTITLE5=it's over now
TTITLE6=All I want
TTITLE7=Never let me go
TTITLE8=Lover, come back to me
TTITLE9=Over the rainbow
TTITLE10=Over joyed
TTITLE11=Heart's desire
EXTD=YEAR: 1992
EXTT0=
EXTT1=
EXTT2=
EXTT3=
EXTT4=
EXTT5=
EXTT6=
EXTT7=
EXTT8=
EXTT9=
EXTT10=
EXTT11=
PLAYORDER=
